<?xml version="1.0" standalone="no"?><!DOCTYPE svg PUBLIC "-//W3C//DTD SVG 1.1//EN" "http://www.w3.org/Graphics/SVG/1.1/DTD/svg11.dtd"><svg t="1742747596957" class="icon" viewBox="0 0 1024 1024" version="1.1" xmlns="http://www.w3.org/2000/svg" p-id="4767" width="32" height="32" xmlns:xlink="http://www.w3.org/1999/xlink"><path d="M384 970.666667c-231.68 0-330.666667-98.986667-330.666667-330.666667V384c0-231.68 98.986667-330.666667 330.666667-330.666667h256c231.68 0 330.666667 98.986667 330.666667 330.666667v256c0 231.68-98.986667 330.666667-330.666667 330.666667H384zM117.333333 384v256c0 196.693333 69.973333 266.666667 266.666667 266.666667h256c196.693333 0 266.666667-69.973333 266.666667-266.666667V384c0-196.693333-69.973333-266.666667-266.666667-266.666667H384C187.306667 117.333333 117.333333 187.306667 117.333333 384z" fill="#468671" p-id="4768"></path><path d="M428.8 655.36l-120.746667-120.746667a32.170667 32.170667 0 0 1 0-45.226666c12.373333-12.373333 32.853333-12.373333 45.226667 0l98.133333 98.133333 219.306667-219.306667c12.373333-12.373333 32.853333-12.373333 45.226667 0 12.373333 12.373333 12.373333 32.853333 0 45.226667l-241.92 241.92a32 32 0 0 1-45.226667 0z" fill="#468671" p-id="4769"></path></svg>